<?xml version="1.0" encoding="UTF-8"?>
<!DOCTYPE svg PUBLIC "-//W3C//DTD SVG 1.1//EN" "http://www.w3.org/Graphics/SVG/1.1/DTD/svg11.dtd">
<!-- Creator: CorelDRAW X7 -->
<svg xmlns="http://www.w3.org/2000/svg" xml:space="preserve" width="169.333mm" height="169.333mm" version="1.1" style="shape-rendering:geometricPrecision; text-rendering:geometricPrecision; image-rendering:optimizeQuality; fill-rule:evenodd; clip-rule:evenodd"
viewBox="0 0 16933 16933"
 xmlns:xlink="http://www.w3.org/1999/xlink">
 <defs>
  <style type="text/css">
   <![CDATA[
    .fil2 {fill:#BAB8AA}
    .fil3 {fill:#D5D2C3}
    .fil0 {fill:#EBE8D7}
    .fil1 {fill:#F9F8F2}
   ]]>
  </style>
 </defs>
 <g id="Слой_x0020_1">
  <metadata id="CorelCorpID_0Corel-Layer"/>
  <g id="_2566899338400">
   <path class="fil0" d="M14547 5012l-98 41c125,91 49,7 90,106 -134,222 -540,142 -1025,142 -389,0 -2684,35 -2893,-35 -150,-50 -232,-132 -362,-190l-17 -129c-147,-347 -182,7 -181,-887 0,-627 -76,-2946 67,-3194 52,594 18,2019 18,2754 0,146 1,293 0,440 0,68 -5,157 -2,222 7,136 -12,92 39,189 29,-844 1,-1968 1,-2866 0,-261 -52,-824 33,-924 -205,-102 -5133,-29 -5826,-29 -774,0 -1612,-170 -1923,276 -152,218 -131,264 -130,603l-1 13999c-1,170 -12,193 48,319 260,541 795,449 1419,449 1656,0 9998,53 10257,-39 528,-189 517,-580 516,-950l0 -8831c0,-294 63,-1287 -30,-1466z"/>
   <path class="fil1" d="M10183 4471c9,213 101,271 223,387 118,112 202,170 396,192l3487 5 160 -2 98 -41 -4330 -4331c-85,100 -33,663 -33,924 0,898 28,2022 -1,2866z"/>
   <path class="fil0" d="M6552 6112l264 589c418,-66 951,-466 1960,-358 692,74 1215,515 965,1309 -152,480 -812,871 -1169,1175 -512,435 -704,758 -704,1691l658 -2c2,-1034 442,-1126 1157,-1714 479,-394 1080,-861 891,-1873 -336,-1791 -3290,-1289 -4022,-817z"/>
   <path class="fil0" d="M8053 11262c-342,73 -498,362 -418,771 63,319 373,492 778,410 676,-138 593,-1383 -360,-1181z"/>
   <path class="fil2" d="M10242 4947c308,121 128,255 891,254 623,-1 3024,65 3267,-68l-111 -78 -3487 -5c-194,-22 -278,-80 -396,-192 -122,-116 -214,-174 -223,-387 -51,-97 -32,-53 -39,-189 -3,-65 2,-154 2,-222 1,-147 0,-294 0,-440 0,-735 34,-2160 -18,-2754 -143,248 -67,2567 -67,3194 -1,894 34,540 181,887z"/>
   <path class="fil3" d="M14449 5053l-160 2 111 78c-243,133 -2644,67 -3267,68 -763,1 -583,-133 -891,-254l17 129c130,58 212,140 362,190 209,70 2504,35 2893,35 485,0 891,80 1025,-142 -41,-99 35,-15 -90,-106z"/>
  </g>
 </g>
</svg>
