<?xml version="1.0" encoding="UTF-8"?>
<!DOCTYPE svg PUBLIC "-//W3C//DTD SVG 1.1//EN" "http://www.w3.org/Graphics/SVG/1.1/DTD/svg11.dtd">
<!-- Creator: CorelDRAW X7 -->
<svg xmlns="http://www.w3.org/2000/svg" xml:space="preserve" width="84.6666mm" height="84.6666mm" version="1.1" style="shape-rendering:geometricPrecision; text-rendering:geometricPrecision; image-rendering:optimizeQuality; fill-rule:evenodd; clip-rule:evenodd"
viewBox="0 0 8467 8467"
 xmlns:xlink="http://www.w3.org/1999/xlink">
 <defs>
  <style type="text/css">
   <![CDATA[
    .fil1 {fill:#898989}
    .fil0 {fill:black}
   ]]>
  </style>
 </defs>
 <g id="Слой_x0020_1">
  <metadata id="CorelCorpID_0Corel-Layer"/>
  <g id="_2121428417152">
   <path class="fil0" d="M6383 4173c0,154 18,239 104,363 40,57 55,67 101,105 369,303 906,12 907,-394l0 -20c0,-108 -4,-171 -58,-276 -148,-289 -511,-393 -803,-212 -141,87 -251,267 -251,434z"/>
   <path class="fil0" d="M6070 3009c0,78 23,158 47,212 52,117 143,208 260,260 124,56 294,64 421,3 59,-29 110,-58 156,-104 20,-19 42,-46 58,-69 238,-341 19,-822 -436,-822 -281,0 -506,244 -506,520z"/>
   <path class="fil0" d="M5292 2077c0,340 336,581 671,445 57,-23 101,-56 142,-98 299,-299 116,-820 -347,-820 -131,0 -241,57 -325,142 -41,41 -73,79 -97,136 -21,50 -44,126 -44,195z"/>
   <path class="fil0" d="M4200 1558c0,155 27,245 135,351 52,51 134,95 209,110 450,85 695,-441 417,-730 -80,-82 -182,-129 -288,-138l-71 0c-52,5 -105,18 -156,40 -66,30 -124,82 -166,140 -43,60 -80,145 -80,227z"/>
   <path class="fil0" d="M3002 1604c0,126 40,236 120,306 407,357 909,-197 568,-561l-48 -46c-127,-102 -333,-101 -466,-11 -100,69 -174,185 -174,312z"/>
   <path class="fil0" d="M1937 2163c0,113 29,193 95,265 125,136 365,154 517,7 147,-142 143,-401 -21,-531 -65,-51 -131,-82 -226,-87 -34,-1 -106,11 -143,29 -122,57 -222,160 -222,317z"/>
   <path class="fil0" d="M1211 3135c0,196 142,333 293,333 103,0 188,-18 258,-95 239,-260 -46,-657 -358,-518l-75 45c-70,57 -118,138 -118,235z"/>
   <path class="fil0" d="M972 4381c0,133 130,252 266,252 96,0 151,-21 215,-85 160,-161 64,-474 -208,-474 -150,0 -273,126 -273,251l0 56z"/>
   <path class="fil0" d="M1265 5538l0 47c0,110 109,219 219,219 74,0 142,-11 195,-71 206,-234 -110,-549 -343,-343 -29,25 -71,97 -71,148z"/>
   <path class="fil0" d="M2043 6550c0,266 406,270 406,0 0,-187 -226,-262 -347,-142 -25,25 -59,95 -59,142z"/>
   <path class="fil0" d="M3175 7129c0,181 238,224 309,76 95,-200 -202,-333 -292,-145 -7,15 -17,50 -17,69z"/>
   <path class="fil0" d="M4453 7189c0,79 50,120 105,126l30 0c57,-6 109,-47 110,-120 1,-159 -245,-160 -245,-6z"/>
   <path class="fil0" d="M5638 6716c0,137 160,105 160,27 0,-49 -11,-97 -80,-97 -36,0 -80,29 -80,70z"/>
   <path class="fil0" d="M6516 5798l0 46c29,25 27,24 74,13 26,-54 -3,-107 -74,-59z"/>
  </g>
  <path class="fil1" d="M6588 4641c369,303 906,12 907,-394l0 -20c0,-108 -4,-171 -58,-276 -148,-289 -511,-393 -803,-212 -141,87 -251,267 -251,434 0,154 18,239 104,363 40,57 55,67 101,105z"/>
  <path class="fil1" d="M6377 3481c124,56 294,64 421,3 59,-29 110,-58 156,-104 20,-19 42,-46 58,-69 238,-341 19,-822 -436,-822 -281,0 -506,244 -506,520 0,78 23,158 47,212 52,117 143,208 260,260z"/>
  <path class="fil1" d="M6105 2424c299,-299 116,-820 -347,-820 -131,0 -241,57 -325,142 -41,41 -73,79 -97,136 -21,50 -44,126 -44,195 0,340 336,581 671,445 57,-23 101,-56 142,-98z"/>
  <path class="fil1" d="M4544 2019c450,85 695,-441 417,-730 -80,-82 -182,-129 -288,-138l-71 0c-52,5 -105,18 -156,40 -66,30 -124,82 -166,140 -43,60 -80,145 -80,226 0,156 27,246 135,352 52,51 134,95 209,110z"/>
  <path class="fil1" d="M3122 1910c407,357 909,-197 568,-561l-48 -46c-127,-102 -333,-101 -466,-11 -100,69 -174,185 -174,312 0,126 40,236 120,306z"/>
  <path class="fil1" d="M2549 2435c147,-142 143,-401 -21,-531 -65,-51 -131,-82 -226,-87 -34,-1 -106,11 -143,29 -122,57 -222,160 -222,317 0,113 29,193 95,265 125,136 365,154 517,7z"/>
  <path class="fil1" d="M1762 3373c239,-260 -46,-657 -358,-518l-75 45c-70,57 -118,138 -118,235 0,196 142,333 293,333 103,0 188,-18 258,-95z"/>
  <path class="fil1" d="M1453 4548c160,-161 64,-474 -208,-474 -150,0 -273,126 -273,251l0 56c0,133 130,252 266,252 96,0 151,-21 215,-85z"/>
  <path class="fil1" d="M1679 5733c206,-234 -110,-549 -343,-343 -29,25 -71,97 -71,148l0 47c0,110 109,219 219,219 74,0 142,-11 195,-71z"/>
  <path class="fil1" d="M2449 6550c0,-187 -226,-262 -347,-142 -25,25 -59,95 -59,142 0,266 406,270 406,0z"/>
  <path class="fil1" d="M3484 7205c95,-200 -202,-333 -292,-145 -7,15 -17,50 -17,69 0,181 238,224 309,76z"/>
  <path class="fil1" d="M4453 7189c0,79 50,120 105,126l30 0c57,-6 109,-47 110,-120 1,-159 -245,-160 -245,-6z"/>
  <path class="fil1" d="M5638 6716c0,137 160,105 160,27 0,-49 -11,-97 -80,-97 -36,0 -80,29 -80,70z"/>
  <path class="fil1" d="M6516 5844c29,25 27,24 74,13 26,-54 -3,-107 -74,-59l0 46z"/>
 </g>
</svg>
